<?xml version="1.0" encoding="UTF-8"?>
<svg id="_Слой_2" data-name="Слой 2" xmlns="http://www.w3.org/2000/svg" viewBox="0 0 144.55 143.95">
  <defs>
    <style>
      .cls-1 {
        fill: #030407;
      }
    </style>
  </defs>
  <g id="_Слой_1-2" data-name="Слой 1">
    <path class="cls-1" d="m117.33,31.09c-.17-.03-.34-.06-.52-.09,1.9-9.17,2.33-17.37-.41-20.85-3.02-3.83-10.03-6.51-17.06-6.51-5.18,0-9.34,1.43-11.71,4.02-.35.38-.68.87-1,1.43-.67-2.9-1.63-5.12-2.92-6.35C81.84.95,78.97,0,75.4,0c-7.53,0-16.79,4.23-20.23,9.23-.12.17-.22.37-.33.57-.42-.87-.89-1.6-1.44-2.12-1.76-1.68-4.44-2.57-7.77-2.57-7.01,0-15.64,3.94-18.84,8.6-.42.61-.78,1.45-1.09,2.46-1.56-1.45-3.92-2.23-6.83-2.23-6.18,0-13.78,3.48-16.61,7.59C-1.73,27.36.05,55.2,3.8,64.96c-1.81,14.87-3.61,55.9,8.74,67.94,8.36,8.16,36.86,11.05,58.73,11.05,15.62,0,34.75-1.49,41.59-5.66,13.76-8.39,32.69-40.95,31.65-54.43-.38-4.96-4.38-48.6-27.08-52.76,0,0-.02,0-.02,0,0,0,0,0,0,0-.01,0-.05,0-.07,0Zm-2.54-19.66c2.36,3,1.85,10.62,0,19.27-5.7-.87-19.54-2.92-30.56-4.08,1.12-8.3,2.85-15.3,4.92-17.56,1.95-2.13,5.67-3.35,10.2-3.35,6.44,0,12.79,2.35,15.44,5.72Zm-32.5-7.2c1.43,1.37,2.38,4.25,2.94,8.04-1.27,3.6-2.29,8.61-3.02,14.14-5.08-.5-9.37-.77-11.64-.57-4.46.38-7.39,3.76-7.63,8.83-.37,7.74,5.54,17.25,15.73,19.13.82.15,1.67.31,2.54.48.16,1.95.37,3.71.66,5.23-.72,2.91-1.46,5.06-2.15,6.08-2,2.92-5.39,4.66-9.08,4.66-4.42,0-8.35-2.43-10.77-6.68-5.36-9.38-7.46-46.65-2.99-53.16,3.05-4.44,11.71-8.33,18.53-8.33,3.02,0,5.41.75,6.89,2.17Zm-30.31,4.94c.75.71,1.34,1.89,1.82,3.39-2.02,7.53-1.68,22.82.02,35.21-1.16,8.79-2.8,16.15-4.25,18.26-1.85,2.69-4.98,4.29-8.37,4.29-4.08,0-7.7-2.25-9.94-6.16-4.98-8.7-6.93-43.25-2.78-49.28,2.82-4.11,10.83-7.71,17.15-7.71,2.79,0,4.99.69,6.35,2Zm-27.64,8.55c.27.26.51.61.74,1.02-1.51,8.11-.92,22.53.85,33.51-.94,7.11-2.3,13.05-3.71,15.1-1.59,2.32-4.29,3.7-7.23,3.7h0c-3.52,0-6.65-1.94-8.59-5.33C2.19,58.36.46,27.81,3.96,22.71c2.45-3.57,9.42-6.69,14.91-6.69,2.41,0,4.3.59,5.47,1.71Zm46.92,124.17c-23.18,0-49.88-3.24-57.29-10.47-10.91-10.64-10.01-46.95-8.44-63.28,2.33,3.17,5.71,4.96,9.46,4.96h0c3.61,0,6.95-1.72,8.92-4.6,1.08-1.57,2.18-5.5,3.11-10.55.72,3.11,1.55,5.64,2.46,7.22,2.62,4.58,6.89,7.2,11.73,7.2h0c4.07,0,7.84-1.94,10.07-5.19,1.27-1.86,2.59-6.62,3.67-12.7.88,4.39,1.95,7.99,3.13,10.07,2.8,4.9,7.38,7.71,12.56,7.71,4.36,0,8.39-2.07,10.78-5.55.51-.75,1.03-1.93,1.54-3.46,2.28,5.4,6.24,8.5,10.91,8.5h0c3.38,0,6.7-1.6,9.37-4.51.42-.46.89-1.13,1.4-1.95,1.43,2.31,1.85,4.95,1.12,7.53-.15.55.16,1.12.71,1.27.09.03.19.04.28.04.45,0,.86-.3.99-.75,1.16-4.12-.1-8.49-3.39-11.7-6.64-6.5-17.43-8.48-25.3-9.93-9.1-1.67-14.38-10.13-14.05-17,.09-1.93.84-6.46,5.75-6.88,8.27-.7,45.72,5.14,46.32,5.24,21.17,3.9,25.02,46.1,25.39,50.9.97,12.68-17.66,44.58-30.67,52.51-5.34,3.26-21.25,5.36-40.52,5.36Zm31.65-78.73c.14.13.25.28.38.42-.58.99-1.11,1.78-1.57,2.28-2.24,2.44-5.1,3.85-7.85,3.85h0c-3.9,0-7.24-2.77-9.17-7.6-.7-1.76-1.18-4.35-1.47-7.45,6.84,1.4,14.65,3.59,19.68,8.5Z"/>
  </g>
</svg>