<?xml version="1.0" encoding="UTF-8"?>
<svg id="_Слой_2" data-name="Слой 2" xmlns="http://www.w3.org/2000/svg" viewBox="0 0 189.7 169.84">
  <defs>
    <style>
      .cls-1 {
        fill: #030407;
      }
    </style>
  </defs>
  <g id="_Слой_1-2" data-name="Слой 1">
    <path class="cls-1" d="m117.48,156.09c0-.82-.06-1.67-.19-2.61-.5-3.63-1.49-5.85-2.31-7.12,1.78-.48,4.49-1.57,6.34-4,2.24-2.95,4.86-8.2,4.86-13.27,0-.43-.02-.85-.06-1.27-.34-3.59-3.97-5.79-6.47-6.89,1.39-.79,3.24-2.04,5.01-3.86,2.59-2.65,5.27-9.05,5.27-15.17,0-1.88-.25-3.59-.76-5.1-1.01-3.03-4.32-5.01-7.79-6.29,15.8.13,46.15.05,56.97-2.37,6.89-1.54,11.35-6.29,11.35-12.11,0-5.13-3.9-11.86-14.89-13.92-16.97-3.18-89.53-.77-100.38-.39.73-3.92,3.97-16.82,16.21-27.03,6.77-5.65,10.66-13.48,10.66-21.49C101.31,5.71,97.75.16,92.85,0c-8.84-.29-26.45,17.85-39.66,33.12-4.31,4.98-11.18,7.61-18.46,10.38-12.25,4.68-26.14,9.98-30.97,28.19-2.49,9.39-3.76,19.38-3.76,29.67,0,26.33,8.21,48.82,20.43,55.95,16.73,9.77,81.24,15.36,88.43,11.04,6.2-3.73,8.62-7.17,8.62-12.28ZM5.74,72.23c4.56-17.2,17.35-22.08,29.71-26.8,7.52-2.87,14.63-5.58,19.28-10.96C72.74,13.67,86.61,1.86,92.78,2.06c3.69.12,6.47,4.9,6.47,11.12,0,3.5-.97,12.45-9.92,19.91-15.18,12.65-17.06,28.89-17.13,29.58-.03.3.07.59.27.81.2.22.49.34.79.33.83-.03,83.44-3.02,101.17.31,9.75,1.83,13.21,7.55,13.21,11.9,0,4.82-3.82,8.79-9.74,10.11-14.34,3.2-65.74,2.2-66.26,2.19-.55-.01-1.02.42-1.05.97,0,.55.38,1.03.93,1.08,3.83.37,14.11,2.35,15.69,7.08.43,1.3.65,2.79.65,4.44,0,5.52-2.43,11.43-4.68,13.74-3.09,3.16-6.48,4.46-6.52,4.47-.42.16-.69.55-.67,1.01.02.45.32.83.75.95,1.93.53,7,2.64,7.31,5.95.45,4.82-2.18,10.19-4.39,13.11-2.34,3.09-6.65,3.54-6.69,3.55-.42.04-.76.33-.88.73-.12.4.02.84.34,1.1.02.02,2.04,1.72,2.8,7.27.12.85.17,1.61.17,2.33,0,4.32-2.07,7.17-7.62,10.51-6.51,3.91-70.22-1.65-86.33-11.05-11.43-6.67-19.41-28.95-19.41-54.18,0-10.12,1.24-19.93,3.69-29.15Z"/>
  </g>
</svg>