<?xml version="1.0" encoding="UTF-8"?>
<svg id="_Слой_2" data-name="Слой 2" xmlns="http://www.w3.org/2000/svg" viewBox="0 0 162.92 202.39">
  <defs>
    <style>
      .cls-1 {
        fill: #030407;
      }
    </style>
  </defs>
  <g id="_Слой_1-2" data-name="Слой 1">
    <path class="cls-1" d="m60.16,202.39h0c1.23,0,2.47-.02,3.75-.05,34.55-.96,49.41-30.68,56.55-44.96l.11-.22c5.73-11.46,20.29-26.31,31.99-38.24,2.85-2.9,5.53-5.64,7.85-8.09,2.97-3.14,2.76-5.75,2.05-7.38-1.62-3.76-7.52-6.19-15.03-6.19-10.04,0-23.7,4.61-31.94,17.55-.92,1.44-1.92,2.17-2.98,2.17-1.33,0-2.9-1.18-4.19-3.16-1.29-1.97-2.09-4.4-2.09-6.34,0-2.23-.27-12.86-.62-26.32-.57-21.95-1.35-52.01-1.35-62.25,0-9.1-5.5-13.17-10.96-13.17-5.09,0-10.42,3.6-10.79,10.49l-.44,8.5c-.62,12.01-1.67,32.44-2.49,46.4-.25-5.43-.52-11.81-.78-18.1-.7-16.49-1.49-35.18-2.11-42.08-.74-8.08-6.63-10.95-11.45-10.95-5.35,0-11.47,3.37-12.25,9.6-.68,5.47-1.37,24.3-1.88,41.58-.73-16.4-1.69-33.89-2.66-38.39-.91-4.26-4.93-7.02-10.22-7.02s-11.35,3.11-12.15,9.07c-.76,5.73-1.31,27.44-1.75,44.88-.13,5.03-.25,9.94-.37,14.08-.32-3.21-.65-6.77-.96-10.17-1.04-11.15-2.12-22.69-2.77-25.29-.81-3.24-4.83-5.97-8.79-5.97-4.2,0-7.07,3.02-7.66,8.07-.6,5.13-.79,18.77-1.01,34.56-.26,18.73-.55,39.96-1.62,52.07l-.2,2.18c-1.37,14.97-3.66,40.01,11.58,56.72,9.94,10.89,25.94,16.41,47.58,16.41ZM3.24,127.26c1.08-12.19,1.37-33.46,1.63-52.23.22-15.74.4-29.32,1-34.35.47-4.03,2.47-6.25,5.62-6.25,2.98,0,6.22,2.1,6.79,4.41.61,2.44,1.73,14.42,2.72,24.98q2.11,22.56,3.46,22.55c.15,0,.89-.05,1.08-1,.28-1.4.53-10.65.9-25.6.44-17.4.98-39.04,1.73-44.66.64-4.78,5.57-7.28,10.11-7.28,3.41,0,7.35,1.42,8.21,5.39,1.52,7.11,3.07,48.39,3.66,63.92.12,3.25.18,4.9.26,5.79,0,.13,0,.24,0,.33h.03c.07.62.15.69.31.83.21.19.48.28.76.26.1,0,.96-.1.96-1.15,0-4.05,1.32-62.99,2.62-73.35.63-5.06,5.73-7.8,10.2-7.8,4.15,0,8.79,2.38,9.4,9.08.62,6.85,1.41,25.51,2.1,41.98.37,8.69.71,16.9,1.02,22.99.55,11,.56,10.98,1.77,10.99.22,0,.94-.08,1.09-1.12.56-3.92,2.48-41.15,3.51-61.15l.44-8.49c.29-5.61,4.62-8.54,8.73-8.54,4.43,0,8.9,3.44,8.9,11.11,0,10.26.78,40.34,1.35,62.3.35,13.45.62,24.07.62,26.27,0,2.35.91,5.13,2.43,7.46,1.7,2.6,3.85,4.09,5.91,4.09,1.24,0,3.07-.54,4.71-3.12,7.79-12.24,20.71-16.6,30.2-16.6,6.49,0,11.89,2.03,13.14,4.94.67,1.55.11,3.29-1.66,5.15-2.31,2.44-4.99,5.17-7.83,8.07-11.8,12.04-26.49,27.02-32.36,38.76l-.11.22c-6.96,13.92-21.45,42.9-54.76,43.82-1.26.04-2.46,0-3.7.05-21.03,0-36.53-5.3-46.06-15.74C-.53,168.55,1.71,144.07,3.05,129.44l.2-2.18Z"/>
  </g>
</svg>