<?xml version="1.0" encoding="UTF-8"?>
<svg id="_Слой_2" data-name="Слой 2" xmlns="http://www.w3.org/2000/svg" viewBox="0 0 147.59 191.32">
  <defs>
    <style>
      .cls-1 {
        fill: #030407;
      }
    </style>
  </defs>
  <g id="_Слой_1-2" data-name="Слой 1">
    <path class="cls-1" d="m144.76,109.77c-1.01-.97-2.64-1.76-4.85-2.38,3.48-3.4,6.32-9.52,6.91-15.26.45-4.32-.42-7.74-2.51-9.88-2.57-2.63-9.31-3.96-20.04-3.96-13.52,0-30.66,2.29-37.89,4.85-6.62-3.7-11.03-8.33-12.8-13.64-2.64-7.93-.79-15.22,1.17-22.94,1.85-7.28,3.76-14.8,2.15-23.5C74.02,7.54,68.55,0,60.16,0c-1.33,0-2.75.2-4.23.59-5.4,1.44-6.08,8.82-7.03,19.04-1.01,10.87-2.26,24.4-9.35,37.23-6.66,12.04-11.81,17.78-16.78,23.33-5.11,5.7-9.95,11.08-15.39,22.66-10.46,22.22-12.37,62.8,11.53,78.07,14.18,9.06,35.27,10.41,46.59,10.42h0c12.96,0,25.5-1.76,33.46-4.5,4.16.38,8.44.58,12.3.58h0c5.26,0,12.1-.35,14.79-2.05,3.74-2.35,6.99-8.28,7.55-13.79.35-3.42-.38-6.15-2.09-7.93.93-.27,1.74-.59,2.35-.97,4.24-2.66,7.92-9.38,8.56-15.64.41-4.01-.47-7.18-2.55-9.17-.49-.47-1.14-.9-1.93-1.28.12-.07.25-.13.36-.2,4.55-2.85,8.49-10.07,9.18-16.79.44-4.29-.5-7.68-2.72-9.81Zm.67,9.6c-.62,6.04-4.23,12.74-8.23,15.25-2.19,1.38-8.38,2.17-16.98,2.17-13.02,0-30.79-1.96-36.8-5.12-4.14-2.18-6.6-5.68-6.75-9.6-.13-3.5,1.6-6.73,4.63-8.64,2.06-1.29,8.63-2.76,16.91-3.87,7.03,1.16,15.48,1.8,22.65,1.8,4.9,0,13.47-.32,16.99-2.36,2.63.56,4.5,1.32,5.47,2.25,1.72,1.65,2.47,4.53,2.1,8.11Zm-5.06,27.43c-.57,5.59-3.91,11.79-7.61,14.11-2.03,1.27-7.76,2-15.72,2-12.08,0-28.57-1.82-34.14-4.75-3.82-2.01-6.09-5.24-6.23-8.85-.12-3.23,1.47-6.2,4.27-7.96,2.1-1.32,9.27-2.83,18.05-3.89,6.86.89,14.57,1.38,21.23,1.38h0c4.79,0,10.65-.24,14.67-1.21,1.65.46,2.85,1.03,3.54,1.69,1.58,1.52,2.27,4.17,1.93,7.48Zm-10.47,18.11c1.35,1.3,1.94,3.59,1.65,6.44-.5,4.86-3.4,10.25-6.6,12.26-1.73,1.09-6.85,1.73-13.7,1.73-12.11,0-25.49-1.86-29.83-4.15-3.3-1.74-5.27-4.53-5.39-7.64-.11-2.78,1.27-5.34,3.68-6.85,1.79-1.12,7.84-2.42,15.31-3.33,6.91,1.03,15.07,1.6,22.02,1.6h0c3.77,0,8.26-.16,11.82-.76.43.22.78.45,1.04.7Zm-109.89,14.26C-2.9,164.53-.9,125.26,9.24,103.72c5.32-11.3,9.83-16.33,15.06-22.16,4.82-5.37,10.29-11.46,17.05-23.71,7.3-13.21,8.63-27.56,9.6-38.03.87-9.39,1.5-16.17,5.51-17.24,1.3-.35,2.54-.52,3.7-.52,7.24,0,12.05,6.99,14.71,21.37,1.53,8.25-.33,15.56-2.12,22.62-2.04,8.02-3.96,15.6-1.13,24.1,1.84,5.51,6.04,10.24,12.38,14.05-.07.04-.15.09-.22.13-3.47,2.33-5.43,6.27-5.26,10.54.19,4.62,2.86,8.71,7.32,11.22,1.53.86,3.78,1.62,6.49,2.29-5.78.99-10.28,2.15-12.12,3.31-3.66,2.3-5.76,6.21-5.59,10.46.18,4.67,3.04,8.8,7.85,11.34,2.11,1.11,5.48,2.07,9.54,2.87-5.78.95-10.31,2.1-12.16,3.26-3.43,2.15-5.38,5.8-5.23,9.78.17,4.37,2.84,8.23,7.33,10.59,1.58.83,3.91,1.57,6.72,2.21-4.78.81-8.5,1.78-10.05,2.76-3.04,1.91-4.77,5.15-4.64,8.68.15,3.87,2.51,7.29,6.48,9.38,2.61,1.37,7.56,2.47,13.23,3.22-7.55,1.87-17.72,3.02-28.2,3.02-11.08,0-31.73-1.31-45.48-10.09Zm122.82-95.49c1.62,1.66,2.31,4.59,1.93,8.23-.62,6.02-4.02,12.69-7.73,15.19-2.04,1.38-8.09,2.2-16.17,2.2-12.06,0-28.49-1.92-34.01-5.01-3.83-2.15-6.11-5.61-6.27-9.5-.14-3.55,1.48-6.82,4.35-8.75,3.73-2.51,23-5.69,39.33-5.69,9.87,0,16.46,1.19,18.57,3.35Z"/>
  </g>
</svg>