<?xml version="1.0" encoding="UTF-8"?>
<svg id="_Слой_2" data-name="Слой 2" xmlns="http://www.w3.org/2000/svg" viewBox="0 0 140.6 222.48">
  <defs>
    <style>
      .cls-1 {
        fill: #030407;
      }
    </style>
  </defs>
  <g id="_Слой_1-2" data-name="Слой 1">
    <path class="cls-1" d="m.71,105.36c-1.4,7.16-.5,15.4.59,25.37.5,4.58,1.02,9.32,1.38,14.5.37,5.29-.06,10.92-.52,16.88-1.15,15.03-2.34,30.58,9.6,41.54,14.15,13,32.95,18.82,45.29,18.82,2.37,0,4.52-.22,6.37-.64,6.49-1.5,10.64-5.48,15.04-9.69,4.75-4.55,10.13-9.71,19.59-12.64,17.39-5.38,30.67-17.87,37.4-35.16,6.62-17.03,5.5-34.44,3.98-41.27-.73-3.3-3.45-5.2-7.45-5.2-5.26,0-11.35,3.28-13.29,7.15-.55,1.1-1.04,2.41-1.57,3.79-2.48,6.59-5.88,15.61-20.88,18.4-2.54.47-4.93.71-7.12.71-12.02,0-17.46-7.03-21.93-17.6-2.78-6.57-.39-20.24,5.22-29.86,3.14-5.38,6.74-8.56,10.13-8.95,6.57-.76,18.66,8.86,28.32,16.51,6.78,5.36,12.14,9.6,15.12,10.16.47.09.96.14,1.44.14h0c2.65,0,5.34-1.39,7.57-3.92,3.19-3.61,4.97-8.87,4.45-13.09-.94-7.49-35.25-38.48-46.89-44.95-1.78-.99-4.14-1.49-6.99-1.49-7.73,0-18.43,3.61-28.42,7.89,3.37-4.06,12.04-11.18,20.48-18.11,8.8-7.22,17.11-14.04,19.76-17.65,2.53-3.45,2.9-7.79.97-11.6-2.14-4.23-6.66-6.77-11.1-6.17-3.62.49-14.16,6.2-25.87,13.52,2.23-3.56,3.92-6.54,4.6-8.47,1.19-3.34.73-6.74-1.27-9.58C62.68,1.8,59.29,0,55.88,0c-1.38,0-2.72.29-3.98.86C44.34,4.29,8.89,45.76,3.8,58.78-.69,70.23.15,96.24.71,105.36Zm12.45,96.78c-11.2-10.29-10.05-25.33-8.94-39.87.46-6.04.9-11.74.52-17.18-.36-5.22-.89-9.98-1.39-14.58-1.29-11.76-2.31-21.05.46-28.74,3.57-9.91,12.41-15.02,24.65-22.09l2.46-1.42c3.76-2.18,37.27-21.35,54.66-21.35,2.5,0,4.52.42,6,1.23,12.27,6.82,45.04,36.98,45.84,43.4.45,3.61-1.17,8.33-3.95,11.48-1.84,2.08-3.98,3.23-6.03,3.23h0c-.35,0-.71-.03-1.06-.1-2.48-.47-8.18-4.98-14.22-9.75-10.51-8.32-22.52-17.8-29.83-16.94-4.06.47-8.2,4.01-11.67,9.96-5.23,8.96-8.75,23.63-5.34,31.7,4.14,9.79,9.89,18.85,23.82,18.85,2.31,0,4.83-.25,7.49-.75,16.14-3,19.93-13.05,22.43-19.7.5-1.33.98-2.59,1.48-3.6,1.6-3.2,6.95-6.01,11.45-6.01,2.12,0,4.78.62,5.44,3.59,1.71,7.69,2.08,24.71-3.89,40.08-6.49,16.7-19.31,28.75-36.09,33.95-9.92,3.07-15.49,8.41-20.41,13.12-4.36,4.18-8.13,7.8-14.07,9.17-1.7.39-3.69.59-5.91.59-11.56,0-30.23-5.72-43.91-18.28ZM53.75,64.24c-11.77,5.3-21.89,11.09-23.86,12.23l-2.46,1.42c-8.15,4.71-14.83,8.59-19.58,13.6,3.2-11.75,8.77-29.38,14.77-37.03,9.33-11.9,57.63-42.23,64.92-43.21,3.57-.48,7.23,1.6,8.98,5.06,1.6,3.15,1.31,6.6-.79,9.45-2.49,3.4-11.09,10.45-19.4,17.27-10.16,8.33-19.75,16.2-22.02,20.13-.19.32-.38.69-.57,1.07Zm10.31-50.66c-.84,2.37-3.5,6.74-6.78,11.77-15.28,9.82-31.41,21.63-36.28,27.84-7.07,9.02-13.41,30.82-16.31,42.26-.84,1.27-1.57,2.63-2.19,4.08-.39-11.34-.36-30.86,3.22-40.01C10.92,46.21,46.42,5.6,52.75,2.73c.99-.45,2.04-.67,3.13-.67,2.75,0,5.5,1.46,7.16,3.82,1.61,2.28,1.97,5.02,1.01,7.71Z"/>
  </g>
</svg>