<?xml version="1.0" encoding="UTF-8"?>
<svg id="_Слой_2" data-name="Слой 2" xmlns="http://www.w3.org/2000/svg" viewBox="0 0 128.22 208.67">
  <defs>
    <style>
      .cls-1 {
        fill: #030407;
      }
    </style>
  </defs>
  <g id="_Слой_1-2" data-name="Слой 1">
    <path class="cls-1" d="m.08,138.95c2.68,24.77,27.87,65.08,42.78,68.47,3.59.81,8.94,1.24,15.5,1.24,20.75,0,47.52-4.2,56.27-11.98,10.06-8.94,10.42-11.1,11.76-19.12.27-1.64.58-3.49,1.03-5.73,1.93-9.67-.03-45.46-2.23-62.88,1.44-11.55,1.48-25.87-1.08-29.81-2.66-4.07-9.57-7.39-15.42-7.39-2.67,0-4.84.73-6.32,2.1-.28-.93-.6-1.71-.97-2.28-2.89-4.43-10.59-8.18-17.02-8.35,3.37-19.35,6.11-39.61,4.55-47.72-1.76-9.14-6.11-14.6-11.64-14.6-3.98,0-7.85,2.82-10.61,7.73-5.03,8.93-14.61,57.11-19.21,81.49-3.31-22.83-10.07-68.12-13.03-78C32.28,4.88,27.03,0,21.4,0c-4.95,0-8.8,3.72-10.57,10.2-3.83,14.04,5.33,89.87,6.25,97.44C12.32,112.45-1.18,127.27.08,138.95ZM12.82,10.74c1.51-5.52,4.63-8.68,8.59-8.68,4.64,0,9.2,4.39,11.09,10.68,3.47,11.58,12.59,74.98,14.49,88.35-12.19,2.04-24.2,4.79-27.93,5.66-1.21-10.01-9.82-82.83-6.23-96Zm74.1,5.17c1.51,7.84-1.27,28.09-4.65,47.41-2.37.26-4.3,1.08-5.65,2.44-3.97,3.99-4.29,19.28-3.06,33.26-5.26-.85-14.82.16-24.54,1.72-.17-1.21-.4-2.8-.67-4.71,3.92-21.54,15.21-77.6,20.15-86.38,2.35-4.18,5.65-6.68,8.82-6.68,4.46,0,8.06,4.83,9.61,12.93Zm21.78,57.92c5.05,0,11.45,3.02,13.7,6.45,3.23,4.96,1.57,34.71-2.35,41.89-1.79,3.29-4.68,5.18-7.91,5.18h0c-2.67,0-5.14-1.33-6.59-3.56-1.3-1.99-2.55-7.77-3.41-14.69,1.66-10.69,2.23-24.74.85-32.63.21-.39.43-.74.68-.99,1.36-1.37,3.49-1.65,5.03-1.65Zm16.71,97.61c-.45,2.26-.77,4.14-1.04,5.79-1.31,7.83-1.58,9.46-11.1,17.92-8.37,7.44-34.54,11.46-54.91,11.46-6.31,0-11.65-.42-15.04-1.2-14-3.18-38.64-43.07-41.2-66.68-.94-8.74,7.9-21.08,16.56-29.79,3.84-.91,45.5-10.63,55.82-7.6,4.14,1.22,5.35,4.56,5.63,7.15.69,6.35-3.59,15.66-11.96,20.26-12.73,7-28.22,7.09-28.37,7.09-.57,0-1.03.46-1.03,1.03s.46,1.03,1.03,1.03c.65,0,16.16-.08,29.36-7.34,3.71-2.04,6.61-4.85,8.74-7.92.18.4.36.77.54,1.04,2.07,3.17,5.57,5.06,9.37,5.06,4.53,0,8.53-2.57,10.97-7.06.81-1.48,1.55-3.81,2.2-6.66.84,4.73,1.83,8.4,2.8,9.89,1.83,2.81,4.94,4.49,8.32,4.49h0c4.01,0,7.55-2.28,9.72-6.25.74-1.36,1.42-3.53,2.02-6.21,1.72,17.92,3.36,45.42,1.54,54.49Zm-28.4-50.74c-2.08,3.8-5.42,5.99-9.17,5.99-3.1,0-5.96-1.54-7.65-4.13-.3-.45-.6-1.18-.91-2.1,2.33-4.18,3.3-8.61,2.91-12.19-.47-4.3-2.77-7.34-6.47-8.68-1.29-13.62-1.25-28.76,2.35-32.38,1.59-1.6,4.06-1.93,5.85-1.93,5.81,0,13.18,3.47,15.76,7.43,3.83,5.87,1.95,39.5-2.68,47.98Z"/>
  </g>
</svg>